<?xml version="1.0" encoding="UTF-8" standalone="no"?>
<!DOCTYPE svg PUBLIC "-//W3C//DTD SVG 1.1//EN" "http://www.w3.org/Graphics/SVG/1.1/DTD/svg11.dtd">
<svg xmlns="http://www.w3.org/2000/svg" version="1.1" viewBox="66 418 900 188">
<path fill="#f5684d" d="
  M 123.85 465.79
  A 0.59 0.59 0.0 0 0 124.45 466.40
  Q 133.57 466.22 148.02 466.27
  Q 153.48 466.29 155.81 467.56
  C 164.36 472.21 163.31 483.65 154.58 487.42
  Q 152.49 488.33 147.82 488.24
  Q 134.67 488.00 124.69 488.17
  A 0.84 0.84 0.0 0 0 123.86 489.01
  Q 123.91 517.13 123.93 551.27
  Q 123.93 557.42 126.78 562.27
  C 131.35 570.04 140.28 570.94 148.49 570.36
  C 157.72 569.70 163.88 575.41 160.99 584.75
  C 159.24 590.37 154.05 592.11 148.54 592.18
  Q 139.69 592.28 134.52 591.57
  C 115.64 588.95 104.59 576.49 101.91 558.23
  Q 101.54 555.69 101.56 542.78
  Q 101.59 523.50 101.60 488.98
  A 0.54 0.53 -88.9 0 0 101.09 488.44
  C 97.58 488.30 93.82 488.11 90.22 488.19
  C 74.52 488.53 74.46 466.85 89.77 466.23
  Q 93.46 466.09 101.08 466.44
  A 0.60 0.59 0.5 0 0 101.70 465.84
  Q 101.60 452.35 101.69 440.09
  Q 101.72 435.44 102.88 433.22
  C 105.80 427.59 113.93 426.27 118.86 429.54
  C 124.34 433.18 124.16 437.49 124.17 444.44
  Q 124.19 456.16 123.85 465.79
  Z"
/>
<path fill="#f5684d" d="
  M 759.08 466.15
  A 0.59 0.59 0.0 0 0 759.66 465.56
  Q 759.71 446.50 759.66 441.59
  C 759.59 434.77 761.09 430.09 767.73 428.19
  Q 773.04 426.66 777.49 430.05
  Q 781.94 433.44 781.93 439.27
  Q 781.92 449.86 781.88 451.00
  Q 781.71 455.55 781.74 465.48
  A 0.65 0.65 0.0 0 0 782.39 466.13
  Q 796.11 466.08 809.25 466.15
  Q 816.14 466.19 819.10 472.43
  C 822.07 478.71 818.61 486.15 811.88 487.75
  Q 810.47 488.09 804.11 488.06
  Q 788.55 487.99 782.90 488.13
  A 1.18 1.17 89.3 0 0 781.76 489.31
  Q 781.70 530.27 781.89 552.78
  C 781.97 562.27 789.43 570.15 798.79 570.14
  Q 808.76 570.12 810.93 570.42
  A 7.82 7.60 57.1 0 1 812.15 570.70
  Q 821.09 573.49 819.96 582.05
  C 819.06 588.83 814.74 591.90 808.27 592.08
  Q 800.50 592.28 794.03 591.77
  C 782.14 590.83 769.35 583.76 764.27 572.65
  Q 761.84 567.34 760.46 561.89
  Q 759.61 558.55 759.60 550.55
  Q 759.58 515.63 759.61 488.96
  A 0.83 0.83 0.0 0 0 758.83 488.13
  Q 754.17 487.84 750.94 488.01
  Q 745.12 488.33 743.13 487.61
  C 736.42 485.19 733.44 477.15 737.56 471.03
  C 740.34 466.91 743.82 466.13 749.04 466.15
  Q 756.10 466.18 759.08 466.15
  Z"
/>
<path fill="#7ca06e" d="
  M 884.49 477.20
  A 0.36 0.36 0.0 0 0 884.27 476.58
  Q 873.12 475.80 863.79 469.99
  Q 861.72 468.69 860.71 467.33
  A 1.79 1.79 0.0 0 1 861.28 464.70
  C 873.96 457.74 889.08 459.06 902.79 462.65
  A 1.12 1.12 0.0 0 0 904.12 461.95
  Q 907.53 452.71 909.41 445.76
  C 910.53 441.60 912.49 438.18 917.10 439.63
  C 922.32 441.27 922.40 445.03 920.44 449.65
  Q 918.00 455.39 914.92 464.85
  A 1.77 1.77 0.0 0 0 915.99 467.06
  Q 925.55 470.57 933.56 476.10
  C 939.21 480.00 944.08 483.73 946.64 489.35
  C 947.54 491.33 946.63 492.25 944.63 492.38
  Q 938.79 492.76 935.46 492.21
  A 8.89 8.74 60.0 0 1 933.18 491.58
  L 922.05 486.91
  A 0.60 0.60 0.0 0 0 921.24 487.61
  Q 923.61 497.42 920.06 506.51
  C 919.36 508.30 917.94 510.82 915.69 509.60
  Q 912.24 507.72 909.98 505.04
  Q 903.57 497.44 901.10 488.56
  A 0.31 0.31 0.0 0 0 900.57 488.43
  Q 892.50 497.60 880.27 500.07
  C 876.08 500.92 873.92 500.20 874.82 495.25
  Q 876.78 484.62 884.49 477.20
  Z"
/>
<path fill="#f5684d" d="
  M 490.51 481.37
  A 0.55 0.54 44.7 0 0 491.32 481.37
  Q 502.07 469.56 517.66 465.24
  C 527.24 462.58 538.22 463.42 547.75 466.26
  Q 558.10 469.35 566.54 477.73
  Q 571.74 482.90 573.78 486.44
  Q 577.57 493.02 579.74 501.54
  Q 581.01 506.50 580.98 517.68
  Q 580.86 560.72 581.05 579.72
  C 581.14 589.34 573.48 595.06 564.26 591.24
  C 559.68 589.35 558.47 584.39 558.50 579.09
  Q 558.59 557.36 558.70 514.25
  C 558.73 503.47 553.36 492.54 543.13 488.18
  C 534.41 484.47 524.65 484.18 516.39 488.94
  Q 507.07 494.32 503.55 504.08
  Q 501.78 509.01 501.77 521.62
  Q 501.75 573.79 501.91 579.01
  Q 502.17 587.18 496.38 590.83
  C 489.48 595.19 479.69 591.09 479.55 582.50
  Q 479.42 574.19 479.57 514.54
  Q 479.61 499.25 467.50 490.55
  Q 460.95 485.85 453.01 485.43
  C 438.69 484.67 426.91 492.43 423.23 506.48
  Q 422.20 510.41 422.20 519.12
  Q 422.19 539.79 422.16 580.50
  C 422.16 590.31 413.17 595.52 404.61 590.71
  C 400.26 588.26 399.54 583.42 399.64 578.20
  Q 399.79 569.86 399.78 519.00
  Q 399.78 512.27 400.19 508.28
  C 403.85 472.39 441.86 454.53 473.54 468.44
  C 480.41 471.46 485.10 475.51 490.51 481.37
  Z"
/>
<path fill="#f5684d" d="
  M 391.57 479.84
  C 387.66 487.22 381.17 486.18 373.04 485.94
  Q 358.45 485.50 347.21 494.22
  C 342.67 497.75 339.92 504.34 338.57 509.59
  Q 337.79 512.62 337.78 520.48
  Q 337.74 571.77 337.84 577.38
  C 337.92 582.24 337.97 586.10 334.33 589.51
  C 330.64 592.96 324.96 593.19 320.74 590.77
  C 315.07 587.51 315.47 581.80 315.44 575.50
  Q 315.42 570.73 315.48 514.76
  Q 315.49 507.87 318.22 499.45
  C 325.08 478.35 347.16 464.36 368.76 464.22
  Q 377.15 464.16 377.62 464.15
  Q 383.86 463.99 385.80 464.93
  C 391.59 467.72 394.77 473.79 391.57 479.84
  Z"
/>
<path fill="#f5684d" d="
  M 196.51 547.65
  Q 198.34 552.14 201.33 555.64
  Q 213.83 570.27 232.98 571.05
  Q 252.57 571.86 266.63 558.61
  A 3.25 3.24 10.4 0 1 267.46 558.04
  Q 272.70 555.51 276.85 557.26
  C 282.71 559.72 286.08 565.82 283.50 572.03
  Q 282.47 574.49 278.81 577.42
  C 263.45 589.74 243.91 594.73 224.63 592.10
  C 208.10 589.85 193.74 580.68 183.00 567.88
  Q 174.91 558.25 171.73 545.66
  Q 167.40 528.50 172.12 510.86
  Q 173.76 504.75 176.01 500.77
  C 187.85 479.84 207.02 466.61 231.21 464.70
  C 243.46 463.74 255.18 466.56 266.23 471.78
  C 271.11 474.09 278.30 479.89 282.26 484.51
  Q 292.97 497.00 296.53 513.18
  Q 298.22 520.83 296.40 524.81
  Q 293.85 530.40 287.26 531.51
  Q 247.90 538.14 230.62 541.17
  Q 213.05 544.25 212.02 544.36
  C 207.19 544.87 202.37 546.28 196.92 546.96
  A 0.51 0.50 -14.5 0 0 196.51 547.65
  Z
  M 193.05 526.14
  L 272.26 512.53
  A 0.73 0.73 0.0 0 0 272.83 511.60
  Q 271.40 506.94 269.30 503.96
  C 265.36 498.38 258.73 492.05 251.90 489.58
  Q 246.89 487.78 241.11 486.74
  C 225.19 483.88 209.02 490.94 199.80 504.17
  Q 193.09 513.81 192.34 525.51
  A 0.60 0.60 0.0 0 0 193.05 526.14
  Z"
/>
<path fill="#f5684d" d="
  M 707.03 576.66
  A 0.45 0.45 0.0 0 0 706.25 576.37
  C 696.69 586.61 684.08 591.33 670.20 592.53
  C 644.00 594.79 620.39 582.19 607.81 559.16
  Q 604.23 552.61 602.54 545.48
  C 597.23 523.12 602.54 500.94 618.99 484.44
  C 636.23 467.13 660.89 460.33 684.25 467.04
  Q 703.90 472.69 717.07 489.94
  Q 729.31 505.97 729.52 526.77
  Q 729.72 546.12 729.60 577.75
  Q 729.59 581.10 729.52 583.01
  A 3.80 3.74 56.5 0 1 729.29 584.19
  Q 725.35 594.73 714.13 591.62
  Q 710.49 590.62 708.15 586.62
  C 706.62 584.01 707.10 580.09 707.03 576.66
  Z
  M 695.1869 498.6291
  A 42.68 42.56 -44.7 0 0 634.9135 498.3984
  A 42.68 42.56 -44.7 0 0 634.5131 558.6709
  A 42.68 42.56 -44.7 0 0 694.7865 558.9016
  A 42.68 42.56 -44.7 0 0 695.1869 498.6291
  Z"
/>
<path fill="#f5684d" d="
  M 924.44 504.15
  Q 925.94 498.52 925.49 492.99
  A 0.43 0.43 0.0 0 1 926.07 492.55
  Q 931.74 494.57 939.62 496.58
  Q 940.40 496.78 942.36 496.98
  Q 945.62 497.32 947.50 501.04
  C 955.01 515.89 955.84 532.94 951.11 548.91
  Q 949.06 555.82 944.06 563.36
  C 932.24 581.19 912.49 592.64 890.78 592.85
  Q 878.03 592.97 869.26 589.76
  C 863.05 587.50 855.52 584.37 849.23 579.09
  C 841.75 572.82 834.70 564.75 830.73 555.36
  Q 821.02 532.44 827.86 510.02
  C 832.75 493.96 843.32 481.12 857.91 473.03
  A 2.66 2.65 -45.1 0 1 860.47 473.02
  Q 868.46 477.33 877.07 478.87
  A 0.60 0.60 0.0 0 1 877.42 479.85
  Q 873.79 484.15 872.56 488.86
  A 3.47 3.45 86.4 0 1 870.51 491.20
  Q 864.25 493.75 859.61 498.35
  Q 858.87 499.08 854.50 504.64
  C 846.08 515.33 844.78 532.40 850.08 544.44
  Q 852.79 550.60 855.51 554.47
  C 859.57 560.27 866.15 564.27 872.78 567.43
  C 883.93 572.74 898.85 571.40 909.23 565.85
  Q 919.32 560.44 925.29 551.11
  C 932.39 539.99 933.74 525.81 928.95 513.48
  C 927.85 510.66 925.77 507.77 924.61 505.63
  A 2.03 1.99 -52.1 0 1 924.44 504.15
  Z"
/>
</svg>
